<?xml version="1.0" standalone="no"?>
<!DOCTYPE svg PUBLIC "-//W3C//DTD SVG 20010904//EN"
 "http://www.w3.org/TR/2001/REC-SVG-20010904/DTD/svg10.dtd">
<svg version="1.0" xmlns="http://www.w3.org/2000/svg"
 width="512.000000pt" height="512.000000pt" viewBox="0 0 512.000000 512.000000"
 preserveAspectRatio="xMidYMid meet">
<metadata>
Created by potrace 1.16, written by Peter Selinger 2001-2019
</metadata>
<g transform="translate(0.000000,512.000000) scale(0.100000,-0.100000)"
fill="#000000" stroke="none">
<path d="M1235 4689 c-217 -38 -442 -131 -617 -255 -184 -131 -368 -345 -470
-547 -53 -106 -113 -290 -132 -406 -18 -107 -21 -339 -6 -446 14 -92 83 -347
126 -457 140 -365 428 -784 811 -1179 416 -428 856 -749 1243 -907 325 -133
545 -112 935 90 545 282 1207 899 1588 1478 162 248 259 452 326 686 68 238
73 268 78 451 6 206 -9 319 -67 494 -76 229 -184 404 -355 574 -60 61 -147
136 -193 169 -164 116 -375 207 -592 253 -132 28 -498 25 -635 -5 -247 -54
-485 -163 -653 -300 -29 -24 -59 -41 -66 -39 -6 3 -48 32 -93 66 -144 108
-373 215 -553 258 -204 48 -478 57 -675 22z m511 -364 c278 -51 499 -184 717
-432 50 -57 95 -103 101 -102 6 0 47 43 91 96 209 249 451 388 763 439 184 30
430 7 602 -57 488 -182 798 -690 719 -1179 -13 -86 -72 -298 -109 -393 -131
-341 -397 -714 -772 -1084 -185 -182 -308 -289 -493 -427 -288 -215 -487 -327
-684 -386 -91 -28 -192 -23 -296 13 -566 197 -1411 980 -1778 1645 -103 186
-189 422 -223 612 -48 267 20 553 187 790 259 367 715 548 1175 465z"/>
<path d="M3527 4141 c-30 -37 -34 -69 -12 -111 17 -34 52 -46 150 -54 100 -7
177 -30 280 -80 203 -100 346 -274 401 -486 23 -86 22 -244 -1 -330 -24 -92
-22 -127 9 -159 36 -35 96 -36 131 -1 59 60 89 325 56 495 -69 350 -340 632
-699 726 -42 11 -124 23 -182 26 l-106 6 -27 -32z"/>
</g>
</svg>
